# xmcd
#
# Track frame offsets:
#	150
#	29397
#	45273
#	67950
#	99201
#	124338
#	141980
#	169535
#	245392
#	285232
#
# Disc length: 4140 seconds
#
# Revision: 1
# Processed by: cddbd v1.5.2PL0 Copyright (c) Steve Scherf et al.
# Submitted via: audiograbber 1.83.01
#
DISCID=7c102a0a
DTITLE=Eric Clapton - Slowhand At 70 Live  CD2
DYEAR=2015
DGENRE=Blues
TTITLE0=Driftin' Blues
TTITLE1=Nobody Knows You When You`re Down And Out
TTITLE2=Tears In Heaven
TTITLE3=Layla
TTITLE4=Let It Rain
TTITLE5=Wonderful Tonight
TTITLE6=Crossroads
TTITLE7=Little Queen Of Spades
TTITLE8=Cocaine
TTITLE9=High Time We Went
EXTD=
EXTT0=
EXTT1=
EXTT2=
EXTT3=
EXTT4=
EXTT5=
EXTT6=
EXTT7=
EXTT8=
EXTT9=
PLAYORDER=
